# xmcd CD database file
# Copyright (C) 1993-1998 Ti Kan
# 
# Track frame offsets:
#     150
#     13020
#     26540
#     42510
#     58232
#     72175
#     89272
#     123542
#     133670
#     150987
#     168655
#     181895
#     204902
#     212820
#     232745
#     251937
#     260787
#     274137
# 
# Disc length: 3876 seconds
# 
# Revision: 1
# Processed by: cddbd v1.4b41PL1 Copyright (c) Steve Scherf et al.
# Submitted via: DiscPlay 4.0.4
# 
DISCID=060f2212
DTITLE=Hans s llner - Endlich eine Arbeit
DYEAR=1900
DGENRE=
TTITLE0=Liaba Gott i dank dir sche
TTITLE1=Mei Vadda
TTITLE2=Der Bayr. Rundfunk
TTITLE3=A jeda is a Spanna
TTITLE4=Der Hammer Blues
TTITLE5=Der Rasenm her
TTITLE6=Mit Blaulicht und Sirene
TTITLE7=S'Schwabingliad
TTITLE8=Endlich eine Arbeit
TTITLE9=Die Ballade vom Koffer
TTITLE10=Ein Lied f r Berchtesgaden
TTITLE11=sogar der Wind liagt
TTITLE12=Kauf ma uns a Lederjack'n
TTITLE13=Sakrament warum steig agrat oiwei i in Hundsdreck eini Blues
TTITLE14=Schamts eich ruhig f r mi
TTITLE15=Leb'n ma gsund
TTITLE16=Der Kurgast
TTITLE17=Wintertraum
EXTD=
EXTT0=
EXTT1=
EXTT2=
EXTT3=
EXTT4=
EXTT5=
EXTT6=
EXTT7=
EXTT8=
EXTT9=
EXTT10=
EXTT11=
EXTT12=
EXTT13=
EXTT14=
EXTT15=
EXTT16=
EXTT17=
PLAYORDER=
